<?xml version="1.0" standalone="no"?>
<!DOCTYPE svg PUBLIC "-//W3C//DTD SVG 20010904//EN"
 "http://www.w3.org/TR/2001/REC-SVG-20010904/DTD/svg10.dtd">
<svg version="1.0" xmlns="http://www.w3.org/2000/svg"
 width="374.000000pt" height="374.000000pt" viewBox="0 0 374.000000 374.000000"
 preserveAspectRatio="xMidYMid meet">
<metadata>
Created by potrace 1.14, written by Peter Selinger 2001-2017
</metadata>
<g transform="translate(0.000000,374.000000) scale(0.100000,-0.100000)"
fill="#000000" stroke="none">
<path d="M1650 3719 c-231 -36 -414 -91 -595 -179 -251 -123 -449 -280 -624
-494 -286 -351 -427 -759 -416 -1206 4 -156 8 -211 20 -270 2 -14 7 -39 10
-56 21 -131 94 -344 168 -489 40 -79 148 -250 183 -292 11 -11 33 -38 51 -60
59 -72 168 -179 265 -259 14 -12 66 -49 114 -82 234 -158 460 -247 764 -301
82 -14 145 -18 290 -16 102 1 203 5 225 9 185 30 309 62 440 113 50 20 121 51
160 71 66 33 254 147 265 161 3 3 30 25 60 48 149 112 323 311 432 493 115
193 208 436 234 610 3 19 7 42 9 50 20 77 27 409 12 528 -7 51 -32 180 -52
264 -2 9 -18 58 -36 110 -112 327 -321 627 -583 836 -39 31 -73 59 -76 62 -13
15 -155 103 -230 143 -150 80 -369 159 -501 181 -19 3 -61 11 -94 17 -74 14
-420 19 -495 8z"/>
</g>
</svg>
